<mxfile host="65bd71144e">
    <diagram id="bUknmDO3KefSVGiFB3xm" name="Page-1">
        <mxGraphModel dx="1130" dy="569" grid="1" gridSize="10" guides="1" tooltips="1" connect="1" arrows="1" fold="1" page="1" pageScale="1" pageWidth="850" pageHeight="1100" math="0" shadow="0">
            <root>
                <mxCell id="0"/>
                <mxCell id="1" parent="0"/>
                <mxCell id="6" value="&lt;font style=&quot;font-size: 32px;&quot;&gt;2001:0db8:0be0:75a2:0000:0000:0000:0001&lt;/font&gt;" style="swimlane;whiteSpace=wrap;html=1;startSize=60;fillColor=#0050ef;fontColor=#ffffff;strokeColor=#001DBC;" parent="1" vertex="1">
                    <mxGeometry x="79" y="30" width="710" height="120" as="geometry"/>
                </mxCell>
                <mxCell id="7" value="&lt;font color=&quot;#3333ff&quot; style=&quot;font-size: 23px;&quot;&gt;Routing prefix /48&lt;/font&gt;" style="text;html=1;strokeColor=none;fillColor=none;align=center;verticalAlign=middle;whiteSpace=wrap;rounded=0;fontSize=32;" parent="6" vertex="1">
                    <mxGeometry x="21" y="70" width="190" height="30" as="geometry"/>
                </mxCell>
                <mxCell id="8" value="" style="endArrow=none;html=1;fontSize=32;strokeWidth=4;" parent="6" edge="1">
                    <mxGeometry width="50" height="50" relative="1" as="geometry">
                        <mxPoint x="275" y="120" as="sourcePoint"/>
                        <mxPoint x="275" as="targetPoint"/>
                    </mxGeometry>
                </mxCell>
                <mxCell id="9" value="" style="endArrow=none;html=1;fontSize=32;strokeWidth=4;" parent="6" edge="1">
                    <mxGeometry width="50" height="50" relative="1" as="geometry">
                        <mxPoint x="357" y="120" as="sourcePoint"/>
                        <mxPoint x="357" y="-1" as="targetPoint"/>
                    </mxGeometry>
                </mxCell>
                <mxCell id="10" value="&lt;font style=&quot;font-size: 23px;&quot;&gt;65536 x /64&lt;/font&gt;" style="text;html=1;strokeColor=none;fillColor=none;align=center;verticalAlign=middle;whiteSpace=wrap;rounded=0;fontSize=32;fontColor=#3333FF;" parent="6" vertex="1">
                    <mxGeometry x="431" y="70" width="190" height="30" as="geometry"/>
                </mxCell>
                <mxCell id="11" value="&lt;font color=&quot;#3333ff&quot;&gt;Subnet&lt;br&gt;/16&lt;/font&gt;" style="text;html=1;strokeColor=none;fillColor=none;align=center;verticalAlign=middle;whiteSpace=wrap;rounded=0;fontSize=23;" parent="6" vertex="1">
                    <mxGeometry x="284" y="60" width="64" height="60" as="geometry"/>
                </mxCell>
                <mxCell id="12" value="&lt;font style=&quot;font-size: 32px;&quot;&gt;2001:0db8:0be0:75a2:0000:0000:0000:0001&lt;/font&gt;" style="swimlane;whiteSpace=wrap;html=1;startSize=60;fillColor=#0050ef;fontColor=#ffffff;strokeColor=#001DBC;" parent="1" vertex="1">
                    <mxGeometry x="79" y="150" width="710" height="120" as="geometry"/>
                </mxCell>
                <mxCell id="13" value="&lt;font color=&quot;#3333ff&quot; style=&quot;font-size: 23px;&quot;&gt;Routing prefix /52&lt;/font&gt;" style="text;html=1;strokeColor=none;fillColor=none;align=center;verticalAlign=middle;whiteSpace=wrap;rounded=0;fontSize=32;" parent="12" vertex="1">
                    <mxGeometry x="21" y="70" width="190" height="30" as="geometry"/>
                </mxCell>
                <mxCell id="14" value="" style="endArrow=none;html=1;fontSize=32;strokeWidth=4;" parent="12" edge="1">
                    <mxGeometry width="50" height="50" relative="1" as="geometry">
                        <mxPoint x="297" y="120" as="sourcePoint"/>
                        <mxPoint x="297" as="targetPoint"/>
                    </mxGeometry>
                </mxCell>
                <mxCell id="15" value="" style="endArrow=none;html=1;fontSize=32;strokeWidth=4;" parent="12" edge="1">
                    <mxGeometry width="50" height="50" relative="1" as="geometry">
                        <mxPoint x="357" y="120" as="sourcePoint"/>
                        <mxPoint x="357" y="-1" as="targetPoint"/>
                    </mxGeometry>
                </mxCell>
                <mxCell id="16" value="&lt;font style=&quot;font-size: 23px;&quot;&gt;4096 x /64&lt;/font&gt;" style="text;html=1;strokeColor=none;fillColor=none;align=center;verticalAlign=middle;whiteSpace=wrap;rounded=0;fontSize=32;fontColor=#3333FF;" parent="12" vertex="1">
                    <mxGeometry x="431" y="70" width="190" height="30" as="geometry"/>
                </mxCell>
                <mxCell id="17" value="/12" style="text;html=1;strokeColor=none;fillColor=none;align=center;verticalAlign=middle;whiteSpace=wrap;rounded=0;fontSize=23;fontColor=#3333FF;" parent="12" vertex="1">
                    <mxGeometry x="304" y="73" width="38" height="30" as="geometry"/>
                </mxCell>
                <mxCell id="18" value="&lt;font style=&quot;font-size: 32px;&quot;&gt;2001:0db8:0be0:75a2:0000:0000:0000:0001&lt;/font&gt;" style="swimlane;whiteSpace=wrap;html=1;startSize=60;fillColor=#0050ef;fontColor=#ffffff;strokeColor=#001DBC;" parent="1" vertex="1">
                    <mxGeometry x="79" y="270" width="710" height="120" as="geometry"/>
                </mxCell>
                <mxCell id="19" value="&lt;font color=&quot;#3333ff&quot; style=&quot;font-size: 23px;&quot;&gt;Routing prefix /56&lt;/font&gt;" style="text;html=1;strokeColor=none;fillColor=none;align=center;verticalAlign=middle;whiteSpace=wrap;rounded=0;fontSize=32;" parent="18" vertex="1">
                    <mxGeometry x="21" y="70" width="190" height="30" as="geometry"/>
                </mxCell>
                <mxCell id="20" value="" style="endArrow=none;html=1;fontSize=32;strokeWidth=4;" parent="18" edge="1">
                    <mxGeometry width="50" height="50" relative="1" as="geometry">
                        <mxPoint x="317" y="120" as="sourcePoint"/>
                        <mxPoint x="317" as="targetPoint"/>
                    </mxGeometry>
                </mxCell>
                <mxCell id="21" value="" style="endArrow=none;html=1;fontSize=32;strokeWidth=4;" parent="18" edge="1">
                    <mxGeometry width="50" height="50" relative="1" as="geometry">
                        <mxPoint x="357" y="120" as="sourcePoint"/>
                        <mxPoint x="357" y="-1" as="targetPoint"/>
                    </mxGeometry>
                </mxCell>
                <mxCell id="22" value="&lt;font color=&quot;#3333ff&quot; style=&quot;font-size: 23px;&quot;&gt;256 x /64&lt;/font&gt;" style="text;html=1;strokeColor=none;fillColor=none;align=center;verticalAlign=middle;whiteSpace=wrap;rounded=0;fontSize=32;" parent="18" vertex="1">
                    <mxGeometry x="431" y="70" width="190" height="30" as="geometry"/>
                </mxCell>
                <mxCell id="23" value="/8" style="text;html=1;strokeColor=none;fillColor=none;align=center;verticalAlign=middle;whiteSpace=wrap;rounded=0;fontSize=23;fontColor=#3333FF;" parent="18" vertex="1">
                    <mxGeometry x="320" y="73" width="38" height="30" as="geometry"/>
                </mxCell>
                <mxCell id="27" value="&lt;font style=&quot;font-size: 32px;&quot;&gt;2001:0db8:0be0:75a2:0000:0000:0000:0001&lt;/font&gt;" style="swimlane;whiteSpace=wrap;html=1;startSize=60;fillColor=#0050ef;fontColor=#ffffff;strokeColor=#001DBC;" parent="1" vertex="1">
                    <mxGeometry x="79" y="390" width="710" height="120" as="geometry"/>
                </mxCell>
                <mxCell id="28" value="&lt;font style=&quot;font-size: 23px;&quot;&gt;Routing prefix /60&lt;/font&gt;" style="text;html=1;strokeColor=none;fillColor=none;align=center;verticalAlign=middle;whiteSpace=wrap;rounded=0;fontSize=32;fontColor=#3333FF;" parent="27" vertex="1">
                    <mxGeometry x="21" y="70" width="190" height="30" as="geometry"/>
                </mxCell>
                <mxCell id="29" value="" style="endArrow=none;html=1;fontSize=32;strokeWidth=4;" parent="27" edge="1">
                    <mxGeometry width="50" height="50" relative="1" as="geometry">
                        <mxPoint x="333" y="120" as="sourcePoint"/>
                        <mxPoint x="333" as="targetPoint"/>
                    </mxGeometry>
                </mxCell>
                <mxCell id="30" value="" style="endArrow=none;html=1;fontSize=32;strokeWidth=4;" parent="27" edge="1">
                    <mxGeometry width="50" height="50" relative="1" as="geometry">
                        <mxPoint x="357" y="120" as="sourcePoint"/>
                        <mxPoint x="357" y="-1" as="targetPoint"/>
                    </mxGeometry>
                </mxCell>
                <mxCell id="31" value="&lt;font style=&quot;font-size: 23px;&quot;&gt;16 x /64&lt;/font&gt;" style="text;html=1;strokeColor=none;fillColor=none;align=center;verticalAlign=middle;whiteSpace=wrap;rounded=0;fontSize=32;fontColor=#3333FF;" parent="27" vertex="1">
                    <mxGeometry x="431" y="70" width="190" height="30" as="geometry"/>
                </mxCell>
                <mxCell id="32" value="/4" style="text;html=1;strokeColor=none;fillColor=none;align=center;verticalAlign=middle;whiteSpace=wrap;rounded=0;fontSize=23;fontColor=#3333FF;" parent="27" vertex="1">
                    <mxGeometry x="332" y="73" width="30" height="30" as="geometry"/>
                </mxCell>
            </root>
        </mxGraphModel>
    </diagram>
</mxfile>